HIERARCHY
ROOT Hips
{
	OFFSET 0.000000 0.000000 0.000000
	CHANNELS 6 Xposition Yposition Zposition Xrotation Yrotation Zrotation
	JOINT LeftUpLeg_virtual
	{
		OFFSET 0.000000 0.000000 0.000000
		CHANNELS 3 Xrotation Yrotation Zrotation
		JOINT LeftUpLeg
		{
			OFFSET 10.205400 -3.823500 0.155100
			CHANNELS 3 Xrotation Yrotation Zrotation
			JOINT LeftLeg
			{
				OFFSET 0.708757 -12.982077 0.567790
				CHANNELS 3 Xrotation Yrotation Zrotation
				JOINT LeftFoot
				{
					OFFSET -0.708756 -10.717838 -2.184338
					CHANNELS 3 Xrotation Yrotation Zrotation
					JOINT LeftToeBase
					{
						OFFSET 0.108149 -7.191104 7.560241
						CHANNELS 3 Xrotation Yrotation Zrotation
						JOINT LeftToe_End
						{
							OFFSET 0.070230 0.081724 4.490308
							CHANNELS 3 Xrotation Yrotation Zrotation
							End Site
							{
								OFFSET 0 0 0
							}
						}
					}
				}
			}
		}
	}
	JOINT RightUpLeg_virtual
	{
		OFFSET 0.000000 0.000000 0.000000
		CHANNELS 3 Xrotation Yrotation Zrotation
		JOINT RightUpLeg
		{
			OFFSET -10.205400 -3.823500 0.005500
			CHANNELS 3 Xrotation Yrotation Zrotation
			JOINT RightLeg
			{
				OFFSET -0.708756 -12.982134 0.610632
				CHANNELS 3 Xrotation Yrotation Zrotation
				JOINT RightFoot
				{
					OFFSET 0.708754 -10.717769 -1.945823
					CHANNELS 3 Xrotation Yrotation Zrotation
					JOINT RightToeBase
					{
						OFFSET -0.108140 -7.191069 7.372968
						CHANNELS 3 Xrotation Yrotation Zrotation
						JOINT RightToe_End
						{
							OFFSET -0.070227 0.081735 4.479403
							CHANNELS 3 Xrotation Yrotation Zrotation
							End Site
							{
								OFFSET 0 0 0
							}
						}
					}
				}
			}
		}
	}
	JOINT Spine_virtual
	{
		OFFSET 0.000000 0.000000 0.000000
		CHANNELS 3 Xrotation Yrotation Zrotation
		JOINT Spine
		{
			OFFSET 0.000000 6.876099 0.125700
			CHANNELS 3 Xrotation Yrotation Zrotation
			JOINT Spine1
			{
				OFFSET 0.000000 5.730043 0.104720
				CHANNELS 3 Xrotation Yrotation Zrotation
				JOINT Spine1_split
				{
					OFFSET 0.000000 5.730043 0.104720
					CHANNELS 3 Xrotation Yrotation Zrotation
					JOINT Spine2
					{
						OFFSET 0.000000 5.730043 0.104720
						CHANNELS 3 Xrotation Yrotation Zrotation
						JOINT Neck_virtual
						{
							OFFSET 0.000000 0.000000 0.000000
							CHANNELS 3 Xrotation Yrotation Zrotation
							JOINT Neck
							{
								OFFSET 0.000000 10.314075 0.188496
								CHANNELS 3 Xrotation Yrotation Zrotation
								JOINT Head
								{
									OFFSET 0.000000 7.643700 -2.377400
									CHANNELS 3 Xrotation Yrotation Zrotation
									JOINT HeadTop_End
									{
										OFFSET 0.000000 43.788605 -13.619600
										CHANNELS 3 Xrotation Yrotation Zrotation
										End Site
										{
											OFFSET 0 0 0
										}
									}
								}
							}
						}
						JOINT LeftShoulder_virtual
						{
							OFFSET 0.000000 0.000000 0.000000
							CHANNELS 3 Xrotation Yrotation Zrotation
							JOINT LeftShoulder
							{
								OFFSET 2.196100 4.412489 0.087492
								CHANNELS 3 Xrotation Yrotation Zrotation
								JOINT LeftShoulder_split
								{
									OFFSET 2.196100 4.412489 0.087492
									CHANNELS 3 Xrotation Yrotation Zrotation
									JOINT LeftArm
									{
										OFFSET 8.771219 -2.981674 -0.026999
										CHANNELS 3 Xrotation Yrotation Zrotation
										JOINT LeftForeArm
										{
											OFFSET 8.512804 0.000000 -0.000000
											CHANNELS 3 Xrotation Yrotation Zrotation
											JOINT LeftHand
											{
												OFFSET 18.484802 0.000000 -0.000000
												CHANNELS 3 Xrotation Yrotation Zrotation
												End Site
												{
													OFFSET 0 0 0
												}
											}
										}
									}
								}
							}
						}
						JOINT RightShoulder_virtual
						{
							OFFSET 0.000000 0.000000 0.000000
							CHANNELS 3 Xrotation Yrotation Zrotation
							JOINT RightShoulder
							{
								OFFSET -2.196100 4.412496 0.070690
								CHANNELS 3 Xrotation Yrotation Zrotation
								JOINT RightShoulder_split
								{
									OFFSET -2.196100 4.412496 0.070690
									CHANNELS 3 Xrotation Yrotation Zrotation
									JOINT RightArm
									{
										OFFSET -8.771282 -2.981682 -0.094208
										CHANNELS 3 Xrotation Yrotation Zrotation
										JOINT RightForeArm
										{
											OFFSET -8.494598 0.000000 0.000000
											CHANNELS 3 Xrotation Yrotation Zrotation
											JOINT RightHand
											{
												OFFSET -18.483803 0.000000 0.000001
												CHANNELS 3 Xrotation Yrotation Zrotation
												End Site
												{
													OFFSET 0 0 0
												}
											}
										}
									}
								}
							}
						}
					}
				}
			}
		}
	}
}
MOTION
Frames: 5
Frame Time: 0.03333333
0.576980 49.404354 7.995472 0.000000 0.000000 0.000000 5.989023 -38.490172 2.884500 -84.371845 -19.894917 22.901904 86.371738 -0.550991 5.060661 0.426427 2.771498 -5.151900 -7.598861 2.222693 -1.785162 0.000000 0.000000 0.000000 6.369374 -40.471442 2.545549 -120.376019 -38.604687 -3.031090 114.107790 15.775227 -13.326162 41.228425 6.442100 28.439530 8.016590 4.610721 -2.549166 0.000000 0.000000 0.000000 6.725474 -39.893216 2.005179 32.084960 -5.788334 -7.990529 13.398386 1.024073 -3.695168 0.436453 1.182859 1.072159 0.000000 0.000000 0.000000 13.109851 1.102804 -2.537596 -7.611480 18.361205 -13.719792 -25.917887 11.609552 4.656189 0.000000 0.000000 0.000000 14.318726 1.241049 -3.142043 13.222836 -18.407392 5.412652 1.076294 -3.969557 -3.067826 -59.237425 -9.609681 -5.874271 47.202413 -15.535305 28.808997 0.000000 0.000000 0.000000 15.062215 1.309736 -3.019523 18.909198 26.734354 -7.408771 0.754923 3.594068 1.925088 -35.482713 1.217411 8.118914 -43.239230 48.656389 33.261027 0.000000 0.000000 0.000000 
0.576559 49.392624 7.974568 0.000000 0.000000 0.000000 6.003354 -38.700282 2.994197 -84.321465 -19.760796 23.014553 86.332430 -0.659585 4.887709 0.345966 3.066398 -5.269466 -7.590223 2.218611 -1.794436 0.000000 0.000000 0.000000 6.417683 -40.681464 2.666835 -119.943654 -38.684545 -2.901885 113.838298 15.843949 -13.425274 40.970326 6.298650 28.128392 7.979707 4.629060 -2.675619 0.000000 0.000000 0.000000 6.679778 -39.966596 2.077156 32.045065 -5.811768 -8.031648 13.355554 1.043188 -3.685397 0.371881 1.193978 1.093700 0.000000 0.000000 0.000000 13.141444 1.104808 -2.549884 -7.610689 18.358522 -13.721456 -25.792483 11.736788 4.503313 0.000000 0.000000 0.000000 14.285772 1.257392 -3.124759 12.948413 -18.455277 4.701381 1.239505 -4.076347 -3.333914 -58.425117 -9.021649 -5.760509 47.066454 -15.441688 28.564418 0.000000 0.000000 0.000000 15.034643 1.292191 -3.032017 18.414711 27.110083 -6.377483 0.750260 3.694604 1.898868 -34.390464 1.073779 8.061333 -43.363836 48.410045 33.192496 0.000000 0.000000 0.000000 
0.571159 49.376709 7.955748 0.000000 0.000000 0.000000 6.080230 -38.845021 3.145826 -84.222537 -19.651347 23.033445 86.200969 -0.797216 4.722882 0.160399 3.416468 -5.376421 -7.613570 2.198602 -1.763602 0.000000 0.000000 0.000000 6.503307 -40.811142 2.814787 -119.531234 -38.709004 -2.792823 113.599331 15.872089 -13.500487 40.664204 6.178281 27.848626 7.947117 4.631966 -2.771332 0.000000 0.000000 0.000000 6.676529 -40.052110 2.195908 31.947339 -5.821126 -8.062112 13.295697 1.054381 -3.673969 0.337659 1.197679 1.119879 0.000000 0.000000 0.000000 13.141416 1.106610 -2.566899 -7.535229 18.349003 -13.741985 -25.622389 11.884440 4.379809 0.000000 0.000000 0.000000 14.241104 1.270952 -3.109157 12.719833 -18.436207 4.090099 1.306953 -4.187258 -3.628661 -57.514537 -8.192786 -5.490986 46.922146 -15.483585 28.387272 0.000000 0.000000 0.000000 14.989364 1.280795 -3.043620 17.957495 27.419207 -5.478842 0.752089 3.763341 1.948131 -33.462569 0.715432 7.883567 -43.454937 48.060811 33.065403 0.000000 0.000000 0.000000 
0.563725 49.359394 7.930582 0.000000 0.000000 0.000000 6.199985 -38.905461 3.332177 -84.081145 -19.584172 22.944414 85.997484 -0.948307 4.574863 -0.081362 3.807538 -5.460814 -7.681365 2.165214 -1.694498 0.000000 0.000000 0.000000 6.610480 -40.864008 2.991511 -119.156844 -38.688343 -2.746507 113.391590 15.868362 -13.541158 40.317193 6.105458 27.614115 7.909549 4.626178 -2.847351 0.000000 0.000000 0.000000 6.693798 -40.141100 2.359565 31.809496 -5.827142 -8.084800 13.234518 1.055941 -3.663093 0.357264 1.223323 1.178973 0.000000 0.000000 0.000000 13.119065 1.108597 -2.587506 -7.423582 18.330127 -13.764862 -25.416430 12.025239 4.302538 0.000000 0.000000 0.000000 14.187993 1.280300 -3.097826 12.523627 -18.362926 3.528630 1.256873 -4.246662 -3.940082 -56.513081 -7.097743 -5.131815 46.842213 -15.705890 28.331239 0.000000 0.000000 0.000000 14.931055 1.275224 -3.050360 17.542964 27.662164 -4.686498 0.783232 3.793869 2.064700 -32.755344 0.337833 7.656966 -43.422644 47.576598 32.797599 0.000000 0.000000 0.000000 
0.551574 49.343895 7.908505 0.000000 0.000000 0.000000 6.321672 -38.905420 3.543578 -83.889203 -19.549436 22.781389 85.744091 -1.094275 4.437117 -0.353984 4.232826 -5.498014 -7.779976 2.124884 -1.609494 0.000000 0.000000 0.000000 6.741241 -40.860469 3.202448 -118.834951 -38.633514 -2.798437 113.223349 15.843367 -13.535448 39.953666 6.092829 27.427448 7.837597 4.617659 -2.916270 0.000000 0.000000 0.000000 6.711955 -40.220423 2.547648 31.650653 -5.834501 -8.103180 13.171922 1.053301 -3.658717 0.405228 1.259115 1.201537 0.000000 0.000000 0.000000 13.073034 1.112731 -2.612040 -7.306542 18.311461 -13.789808 -25.193301 12.152600 4.284809 0.000000 0.000000 0.000000 14.122893 1.284041 -3.091823 12.332748 -18.247725 2.942797 1.097263 -4.213237 -4.169526 -55.481534 -5.704325 -4.701104 46.916590 -16.158411 28.446847 0.000000 0.000000 0.000000 14.857482 1.273495 -3.051850 17.168720 27.835032 -3.961954 0.811338 3.774554 2.232579 -32.224057 0.072000 7.420284 -43.266588 46.992644 32.407919 0.000000 0.000000 0.000000 
